<svg id="Layer_1" data-name="Layer 1" xmlns="http://www.w3.org/2000/svg" viewBox="0 0 562.81 133.62"><defs><style>.cls-1{fill:#fff;}</style></defs><path class="cls-1" d="M151.09,44.37c9.16,0,17.6,4.13,20.2,8.71,4.67,7.63-4.22,13.82-9.88,7.27C159.26,58,156,56.13,151,56.13c-9.52,0-14.46,5.48-14.46,14.28,0,9,5.3,14.09,14,14.09,6.19,0,10.5-3.14,12.39-6.19,3.95-6.65,13.47-1.8,9.79,5.65-3.06,6.47-12.21,12.3-22.72,12.3-15.89,0-25.95-10.23-25.95-25.85C124.06,56.4,133.58,44.37,151.09,44.37ZM206,84.05c6.83-.45,8.89,9.88,1.26,11.49-1.44.09-2.78.18-4.67.18-14.27,0-25.77-9.87-25.77-24.78,0-15.8,11.5-26.57,26.76-26.57,6.55,0,10.68,2,12.93,3.5a6.56,6.56,0,0,1,5.2-2.6,6.26,6.26,0,0,1,6.2,6.19V89.08a6.29,6.29,0,1,1-12.57,0V59.36A17.3,17.3,0,0,0,205,56.22c-9.88,0-15.81,5.57-15.81,13.74,0,8.71,5.57,13.82,14.91,13.82A9.14,9.14,0,0,1,206,84.05ZM218.6,62.77V63Q218.87,63.31,218.6,62.77ZM251,62.42V89.08a6.29,6.29,0,1,1-12.57,0V51.55a6.32,6.32,0,0,1,6.38-6.28,6.4,6.4,0,0,1,6.1,5.29A13.59,13.59,0,0,1,262.32,45c4.94,0,7.37,2.87,7.37,6.19,0,3.5-2.79,6.38-6.92,6.38A16,16,0,0,0,251,62.42ZM298.5,84.05c6.83-.45,8.89,9.88,1.26,11.49-1.44.09-2.78.18-4.67.18-14.27,0-25.77-9.87-25.77-24.78,0-15.8,11.5-26.57,26.76-26.57a37.23,37.23,0,0,1,11.76,1.7V30.18a6.29,6.29,0,0,1,12.57,0v59a6.29,6.29,0,1,1-12.57,0V58.64a20.91,20.91,0,0,0-10.41-2.42c-9.88,0-15.81,5.57-15.81,13.74,0,8.71,5.57,13.82,14.91,13.82A9.14,9.14,0,0,1,298.5,84.05Zm12.57-36.63c.09.09.09,0,0-.09Zm0,13.83v.09C311.25,61.52,311.25,61.52,311.07,61.25Zm19.84-9.7a6.29,6.29,0,0,1,12.57,0V89.08a6.29,6.29,0,1,1-12.57,0Zm11.31-14c-6.1,6.19-14.27-2.07-8.26-8.35L340.52,22c5.92-6.28,15.26,1.89,8.62,8.62Zm37.62,46.5c6.82-.45,8.89,9.88,1.26,11.49-1.44.09-2.79.18-4.67.18-14.28,0-25.77-9.87-25.77-24.78,0-15.8,11.49-26.57,26.76-26.57,6.55,0,10.68,2,12.93,3.5a6.56,6.56,0,0,1,5.2-2.6,6.26,6.26,0,0,1,6.2,6.19V89.08a6.29,6.29,0,1,1-12.57,0V59.36a17.34,17.34,0,0,0-10.42-3.14c-9.87,0-15.8,5.57-15.8,13.74,0,8.71,5.57,13.82,14.91,13.82A9.3,9.3,0,0,1,379.84,84.05Zm12.57-21.28V63Q392.68,63.31,392.41,62.77ZM436,44.37c9.16,0,17.6,4.13,20.2,8.71,4.67,7.63-4.22,13.82-9.87,7.27-2.16-2.33-5.39-4.22-10.42-4.22-9.52,0-14.45,5.48-14.45,14.28,0,9,5.29,14.09,14,14.09,6.2,0,10.51-3.14,12.39-6.19,3.95-6.65,13.47-1.8,9.79,5.65-3,6.47-12.21,12.3-22.72,12.3C419,96.26,408.93,86,408.93,70.41,408.93,56.4,418.44,44.37,436,44.37Zm77.57,25.95c0,15.53-10.41,25.94-26.75,25.94-14.82,0-25-9.87-25-25.94,0-15.36,10.32-25.95,26.57-25.95C503.47,44.37,513.52,54.25,513.52,70.32Zm-12.3,0c0-9.61-5.21-14.82-12.93-14.82-9.51,0-14.27,6.11-14.27,14.82,0,9.78,4.94,14.81,13.38,14.81C496.37,85.13,501.22,79.11,501.22,70.32Zm25.86,11.13c2.06,1.44,7.9,3.41,13.1,3.41,7.37,0,10.15-2.24,10.15-4.67,0-8.17-32.14,1.8-32.14-19.84,0-8.17,6.28-16,24.69-16,5.47,0,12.48,1.35,15.62,3.59,7.18,4.4,1.8,13.83-5.84,10.06-2.6-1.35-7.81-2.16-11.49-2.16-7.45,0-10.41,2-10.41,4.4,0,8.53,32-2.06,32,19.84,0,9.43-8.53,16.16-22.09,16.16-10.05,0-17.5-2.33-21.1-5.74C513.07,85.22,519.53,76.78,527.08,81.45ZM113,72.57H99.61a4.35,4.35,0,0,1-4.19-3.21L91.74,55.81,85.17,94A4.35,4.35,0,0,1,81,97.65h-.14a4.35,4.35,0,0,1-4.22-3.34L69.78,65.4l-.16.68a4.32,4.32,0,0,1-4.22,3.36H42.23a4.34,4.34,0,1,1,0-8.68H61.94l3.55-15.32a4.34,4.34,0,0,1,4.22-3.36h0a4.33,4.33,0,0,1,4.22,3.33l6.27,26.28L86.51,35a4.34,4.34,0,0,1,8.47-.4l8,29.3h10.45A37.41,37.41,0,0,1,128,40a66.81,66.81,0,1,0-2.21,58.24A37.21,37.21,0,0,1,113,72.57Z"/></svg>